<svg xmlns="http://www.w3.org/2000/svg" xmlns:xlink="http://www.w3.org/1999/xlink" width="2000" zoomAndPan="magnify" viewBox="0 0 1500 1499.999933" height="2000" preserveAspectRatio="xMidYMid meet" version="1.0"><defs><g/><clipPath id="9be9a7b263"><rect x="0" width="642" y="0" height="396"/></clipPath></defs><g transform="matrix(1, 0, 0, 1, 18, 552)"><g clip-path="url(#9be9a7b263)"><g fill="#a296bc" fill-opacity="1"><g transform="translate(1.167895, 301.751805)"><g><path d="M 16.640625 -34.796875 L 16.640625 -176.984375 L 51.4375 -211.765625 L 154.890625 -211.765625 L 189.078125 -177.578125 L 189.078125 -145.21875 L 147.9375 -145.21875 L 147.9375 -162.453125 L 133.71875 -176.671875 L 73.21875 -176.671875 L 57.78125 -161.25 L 57.78125 -50.515625 L 73.21875 -35.09375 L 133.71875 -35.09375 L 147.9375 -49.3125 L 147.9375 -66.5625 L 189.078125 -66.5625 L 189.078125 -34.1875 L 154.890625 0 L 51.4375 0 Z M 16.640625 -34.796875 "/></g></g></g><g fill="#a296bc" fill-opacity="1"><g transform="translate(199.312334, 301.751805)"><g><path d="M 15.125 -31.46875 L 15.125 -119.203125 L 46.28125 -150.65625 L 132.8125 -150.65625 L 163.96875 -119.203125 L 163.96875 -31.46875 L 132.8125 0 L 46.28125 0 Z M 113.453125 -33.28125 L 124.03125 -43.859375 L 124.03125 -106.796875 L 113.453125 -117.375 L 65.65625 -117.375 L 55.0625 -106.796875 L 55.0625 -43.859375 L 65.65625 -33.28125 Z M 113.453125 -33.28125 "/></g></g></g><g fill="#a296bc" fill-opacity="1"><g transform="translate(378.398599, 301.751805)"><g><path d="M 19.671875 -216 L 59.59375 -216 L 59.59375 0 L 19.671875 0 Z M 19.671875 -216 "/></g></g></g><g fill="#a296bc" fill-opacity="1"><g transform="translate(457.656388, 301.751805)"><g><path d="M 15.125 -31.46875 L 15.125 -119.203125 L 46.28125 -150.65625 L 106.1875 -150.65625 L 124.03125 -135.234375 L 124.03125 -216 L 163.96875 -216 L 163.96875 0 L 126.453125 0 L 126.453125 -23.296875 L 103.15625 0 L 46.28125 0 Z M 99.53125 -33.890625 L 124.03125 -59 L 124.03125 -98.328125 L 103.46875 -116.78125 L 66.5625 -116.78125 L 55.0625 -104.984375 L 55.0625 -45.6875 L 66.5625 -33.890625 Z M 99.53125 -33.890625 "/></g></g></g></g></g><path fill="#becfff" d="M 648.574219 869.675781 L 1449.304688 869.675781 L 1449.304688 900.425781 L 648.574219 900.425781 Z M 648.574219 869.675781 " fill-opacity="1" fill-rule="nonzero"/><g fill="#becfff" fill-opacity="1"><g transform="translate(648.574959, 853.925066)"><g><path d="M 69.4375 -181.34375 L 4.65625 -181.34375 L 4.65625 -217 L 176.390625 -217 L 176.390625 -181.34375 L 111.59375 -181.34375 L 111.59375 0 L 69.4375 0 Z M 69.4375 -181.34375 "/></g></g></g><g fill="#becfff" fill-opacity="1"><g transform="translate(803.263353, 853.925066)"><g><path d="M 18.59375 -154.375 L 56.421875 -154.375 L 56.421875 -128.65625 L 81.21875 -154.375 L 125.234375 -154.375 L 125.234375 -119.65625 L 89.59375 -119.65625 L 59.515625 -88.65625 L 59.515625 0 L 18.59375 0 Z M 18.59375 -154.375 "/></g></g></g><g fill="#becfff" fill-opacity="1"><g transform="translate(922.302142, 853.925066)"><g><path d="M 13.953125 -28.515625 L 13.953125 -63.859375 L 42.46875 -92.375 L 120.90625 -92.375 L 120.90625 -111.90625 L 111.296875 -121.515625 L 64.796875 -121.515625 L 55.484375 -111.90625 L 55.484375 -103.234375 L 15.1875 -103.234375 L 15.1875 -120.90625 L 48.359375 -154.375 L 128.03125 -154.375 L 161.203125 -120.90625 L 161.203125 0 L 124.3125 0 L 124.3125 -22.015625 L 101.375 0 L 42.46875 0 Z M 98.578125 -31.625 L 120.90625 -53.015625 L 120.90625 -63.234375 L 62.625 -63.234375 L 54.25 -54.875 L 54.25 -39.375 L 62 -31.625 Z M 98.578125 -31.625 "/></g></g></g><g fill="#becfff" fill-opacity="1"><g transform="translate(1100.550404, 853.925066)"><g><path d="M 15.5 -31.625 L 15.5 -122.765625 L 46.8125 -154.375 L 131.75 -154.375 L 163.6875 -122.140625 L 163.6875 -93.625 L 122.765625 -93.625 L 122.765625 -108.8125 L 111.90625 -119.65625 L 67.265625 -119.65625 L 56.421875 -108.8125 L 56.421875 -45.5625 L 67.265625 -34.71875 L 111.90625 -34.71875 L 122.765625 -45.5625 L 122.765625 -60.765625 L 163.6875 -60.765625 L 163.6875 -32.234375 L 131.75 0 L 46.8125 0 Z M 15.5 -31.625 "/></g></g></g><g fill="#becfff" fill-opacity="1"><g transform="translate(1273.528709, 853.925066)"><g><path d="M 18.59375 -221.34375 L 59.515625 -221.34375 L 59.515625 -97.65625 L 86.484375 -97.65625 L 125.859375 -154.375 L 171.125 -154.375 L 119.65625 -79.984375 L 174.21875 0 L 128.953125 0 L 85.5625 -62.9375 L 59.515625 -62.9375 L 59.515625 0 L 18.59375 0 Z M 18.59375 -221.34375 "/></g></g></g></svg>